# xmcd
# Copyright (C) 1995-1998 Ti Kan
#
# Track frame offsets:
#       150
#       18452
#       32580
#       59654
#       72606
#       93904
#       106533
#       129783
#       135596
#       152012
#       159516
#       173677
#       177115
#       192429
#
# Disc length: 2913 seconds
#
# Revision: 0
# Processed by: cddbd v1.5.2PL0 Copyright (c) Steve Scherf et al.
# Submitted via: CD-Import v1.0
#
DISCID=af0b5f0e
DTITLE=Metallic Falcons - Desert Doughnuts
DYEAR=1900
DGENRE=
TTITLE0=Journey
TTITLE1=Airships
TTITLE2=Nighttime And Morning
TTITLE3=Snakes And Tea
TTITLE4=Desert Cathedral
TTITLE5=Silent Night
TTITLE6=Berry Metal
TTITLE7=After Metal (Sound Of Stars)
TTITLE8=Pale Dog
TTITLE9=A Heart Of A Birdsong
TTITLE10=Misty Song
TTITLE11=Ocean
TTITLE12=Disparu
TTITLE13=Four Hearts
EXTD=
EXTT0=
EXTT1=
EXTT2=
EXTT3=
EXTT4=
EXTT5=
EXTT6=
EXTT7=
EXTT8=
EXTT9=
EXTT10=
EXTT11=
EXTT12=
EXTT13=
PLAYORDER=
